<svg xmlns="http://www.w3.org/2000/svg" viewBox="0 0 52.81 52.81"><defs><style>.cls-1{fill:none;stroke:#fee58e;}.cls-1,.cls-2{stroke-linecap:round;stroke-linejoin:round;stroke-width:2.5px;}.cls-2{fill:#fff;stroke:#171c21;}</style></defs><title>mma</title><g id="Layer_1" data-name="Layer 1"><circle class="cls-1" cx="26.4" cy="26.4" r="25.15"/><path class="cls-2" d="M32.12,33.86a9.48,9.48,0,0,0,6.37-5.64c1.75-4.63,2.78-5.61.79-7.54a2.88,2.88,0,0,0-3.69.16"/><path class="cls-2" d="M32.32,33.86s3.51-7,3.39-11.62S36,13.52,29,12.84a32.29,32.29,0,0,0-6.86,0c-6.92.88-6.57,4.76-6.69,9.4s3.38,11.62,3.38,11.62"/><polygon class="cls-2" points="31.4 40.18 19.82 40.18 18.85 33.86 32.37 33.86 31.4 40.18"/></g></svg>