<svg xmlns="http://www.w3.org/2000/svg" viewBox="0 0 52.81 52.81"><defs><style>.cls-1{fill:#fff;stroke:#171c21;}.cls-1,.cls-2{stroke-linecap:round;stroke-linejoin:round;stroke-width:2.5px;}.cls-2{fill:none;stroke:#fee58e;}</style></defs><title>hiit</title><g id="Layer_1" data-name="Layer 1"><path class="cls-1" d="M39.35,23.84a7.82,7.82,0,0,1-2.17,5.23C34.56,32,26.25,40.33,26.25,40.33S18,32,15.33,29.07a7.87,7.87,0,0,1-2.17-5.23c0-.17,0-.34,0-.51.18-3.84,2.47-6.87,6.39-6.87a3,3,0,0,1,.42,0,5.9,5.9,0,0,1,3.34,1.23l.06.05A24.51,24.51,0,0,1,26,20.65c.08.11.17.21.25.31a3.88,3.88,0,0,0,.26-.31,24.39,24.39,0,0,1,2.6-2.89,6,6,0,0,1,3.41-1.28,3,3,0,0,1,.43,0c3.92,0,6.2,3,6.38,6.87A4.35,4.35,0,0,1,39.35,23.84Z"/><circle class="cls-2" cx="26.4" cy="26.4" r="25.15"/></g></svg>