<svg xmlns="http://www.w3.org/2000/svg" viewBox="0 0 52.81 52.81"><defs><style>.cls-1{fill:#fff;}.cls-1,.cls-2{stroke:#171c21;}.cls-1,.cls-2,.cls-3{stroke-linecap:round;stroke-linejoin:round;stroke-width:2.5px;}.cls-2{fill:#f5f6f6;}.cls-3{fill:none;stroke:#fee58e;}</style></defs><title>hirt</title><g id="Layer_1" data-name="Layer 1"><path class="cls-1" d="M35.66,27.4a9.12,9.12,0,0,1,1.24,7.46c-.86,3.3-2,4.91-10.21,4.91h0c-8.21,0-9.33-1.61-10.21-4.91a9.16,9.16,0,0,1,1.25-7.46c1.1-1.93-.12-.47-1.17-3.21s-2.09-4.58,0-8.24,10.07-3.66,10.15-3.66,8.09,0,10.16,3.66,1,5.49,0,8.24S34.56,25.47,35.66,27.4Z"/><path class="cls-2" d="M31.18,23.58a11.79,11.79,0,0,0-4.51-1,12.82,12.82,0,0,0-3.3.49,9,9,0,0,0-1.28.47s-2.95-2.18-1.94-4.7,6.52-2.41,6.52-2.41,5.44-.12,6.45,2.41S31.18,23.58,31.18,23.58Z"/><ellipse class="cls-1" cx="26.5" cy="31.34" rx="3.66" ry="3.53"/><circle class="cls-3" cx="26.4" cy="26.4" r="25.15"/></g></svg>