<?xml version="1.0" encoding="utf-8"?>
<!-- Generator: Adobe Illustrator 23.0.2, SVG Export Plug-In . SVG Version: 6.00 Build 0)  -->
<svg version="1.1" id="Layer_1" xmlns="http://www.w3.org/2000/svg" xmlns:xlink="http://www.w3.org/1999/xlink" x="0px" y="0px"
	 viewBox="0 0 54.6 54.7" style="enable-background:new 0 0 54.6 54.7;" xml:space="preserve">
<style type="text/css">
	.st0{fill:#FEE58E;}
	.st1{fill:#171C21;}
</style>
<title>icon-bulking</title>
<desc>Created with Sketch.</desc>
<g id="icon-bulking">
	<path id="circle" class="st0" d="M51.2,27.4c0-13.2-10.7-23.9-23.9-23.9S3.4,14.2,3.4,27.4s10.7,23.9,23.9,23.9
		S51.2,40.6,51.2,27.4z M53.7,27.4c0,14.6-11.8,26.4-26.4,26.4S0.9,42,0.9,27.4S12.7,1,27.3,1S53.7,12.8,53.7,27.4z"/>
	<path id="icon" class="st1" d="M27.4,14.7c-0.6-0.1-1.3,0-2,0.2c-3.8,1.2-6.8,4.3-8.9,8.7C14.8,27,14,31,14.2,33.1
		c0.2,1.6,3.4,3.7,7.8,3.9c1.1,0,2.3,0,3.8-0.1c1.3-0.1,2.8-0.2,4.2-0.4c0.9-0.1,1.8-0.2,2.6-0.4c0.5-0.1,0.8-0.1,1-0.2
		c0.2,0,0.5,0,0.7,0.1c3.7,1.6,6.4-0.3,6.1-3.9c-0.2-2.1-2-3.5-4.5-3.3c-1.8,0.2-2.8,0.8-3.5,2.3C32,32,30.7,32,30.2,31.2
		c-1.5-2.6-2.9-3.6-4.2-3.5c-1.1,0.1-2.2,0.8-3.6,2.2c-0.3,0.3-1.7,1.8-2.1,2.1c-0.2,0.1-0.3,0.2-0.5,0.3c-0.5,0.1-1.1-0.1-1.4-0.5
		c-0.2-0.2-0.3-0.5-0.3-0.7c0-0.3,0-0.6,0-1c0.1-0.6,0.2-1.4,0.4-2.3c0.5-1.8,1.1-3.7,1.5-4.6c0.2-0.3,0.9-1.8,1-2.1
		c1.3-2.5,2.2-3.6,3.7-3.5c0.1,0,0.2,0,0.3,0.1c2.4,0.4,3.3-0.3,3.3-1.9C28.4,15,28,14.8,27.4,14.7z M33.7,38.4
		c-0.2,0-0.5,0.1-0.7,0.1c-0.8,0.1-1.7,0.3-2.7,0.4c-1.5,0.2-3,0.3-4.4,0.4c-1.5,0.1-2.9,0.1-4,0.1c-5.5-0.2-9.9-3-10.2-6.1
		c-0.3-2.5,0.7-7,2.6-10.8c2.4-4.9,5.9-8.6,10.4-10c1-0.3,2-0.5,3-0.3c1.8,0.2,3,1.3,3.3,3.3v0.1c0.1,3.3-2.3,5.2-6.2,4.5
		c-0.1,0.1-0.2,0.2-0.3,0.4c-0.3,0.4-0.7,1-1.1,1.8c-0.1,0.2-0.9,1.8-1.1,2.1c-0.3,0.5-0.7,1.8-1.1,3.1c1.6-1.4,3-2.3,4.7-2.4
		c2-0.1,3.8,0.9,5.5,3.1c1.1-1.2,2.5-1.8,4.4-1.9c3.8-0.3,6.9,2,7.2,5.6C43.3,37.2,39,40.5,33.7,38.4z"/>
</g>
</svg>
