<svg xmlns="http://www.w3.org/2000/svg" viewBox="0 0 52.81 52.81"><defs><style>.cls-1{fill:none;stroke:#fee58e;}.cls-1,.cls-2{stroke-linecap:round;stroke-linejoin:round;stroke-width:2.5px;}.cls-2{fill:#fff;stroke:#171c21;}</style></defs><title>yoga</title><g id="Layer_1" data-name="Layer 1"><circle class="cls-1" cx="26.4" cy="26.4" r="25.15"/><path class="cls-2" d="M26.53,13.6s-4.85,5-5,11.55,4.62,12,4.62,12h0S31,33,30.91,24.79C30.64,18.58,26.53,13.6,26.53,13.6Z"/><path class="cls-2" d="M10.39,22.55S10.64,30,15,34.48s11.06,4.14,11.06,4.14h0a17.72,17.72,0,0,0-5.33-12.27A16.49,16.49,0,0,0,10.39,22.55Z"/><path class="cls-2" d="M31.77,26.35a17.67,17.67,0,0,0-5.33,12.27h0s6.68.34,11.06-4.14,4.63-11.93,4.63-11.93A16.49,16.49,0,0,0,31.77,26.35Z"/></g></svg>