<svg xmlns="http://www.w3.org/2000/svg" viewBox="0 0 52.81 52.81"><defs><style>.cls-1,.cls-2{fill:none;stroke-linecap:round;stroke-linejoin:round;stroke-width:2.5px;}.cls-1{stroke:#171c21;fill-rule:evenodd;}.cls-2{stroke:#fee58e;}</style></defs><title>pilates</title><g id="Layer_1" data-name="Layer 1"><path class="cls-1" d="M27.67,28.48a2,2,0,0,1,.89-2.57,2.19,2.19,0,0,1,3.05,1.88,4,4,0,0,1-3,4.21C26.4,32.54,24,31,24,27.85a5.37,5.37,0,0,1,5.39-5.33c2.72,0,5.28,2,5.58,5.95,0,3.34-2.26,8.58-10.24,8.67-5.44.09-12.36-.43-12.36-.43L25.29,17.87l4.77.13"/><path class="cls-1" d="M25.15,24.52l6.19-8.1s4-2.65,7.19,1a3.45,3.45,0,0,1,.56,2.05c-.18.58-4.82,12.41-4.82,12.41"/><circle class="cls-2" cx="26.4" cy="26.4" r="25.15"/></g></svg>