<svg xmlns="http://www.w3.org/2000/svg" viewBox="0 0 52.81 52.81"><defs><style>.cls-1{fill:none;stroke:#fee58e;}.cls-1,.cls-2{stroke-linecap:round;stroke-linejoin:round;stroke-width:2.5px;}.cls-2{fill:#fff;stroke:#171c21;}</style></defs><title>strength</title><g id="Layer_1" data-name="Layer 1"><circle class="cls-1" cx="26.4" cy="26.4" r="25.15"/><path class="cls-2" d="M37.23,26.94l3.11,3.11s.29,2.34-.1,2.73L33,40c-.4.39-2.73.1-2.73.1L27.23,37s-.29-2.33.1-2.72l7.21-7.21C34.93,26.69,37.23,26.94,37.23,26.94Z"/><rect class="cls-2" x="24.46" y="20.14" width="4.28" height="12.33" transform="translate(-10.81 26.51) rotate(-45)"/><path class="cls-2" d="M22.8,12.5l3.11,3.12s.29,2.34-.1,2.73L18.6,25.56c-.39.39-2.72.1-2.72.1L12.8,22.58s-.29-2.33.1-2.72l7.21-7.21C20.5,12.26,22.8,12.5,22.8,12.5Z"/></g></svg>